<?xml version="1.0" standalone="no"?>
<!DOCTYPE svg PUBLIC "-//W3C//DTD SVG 20010904//EN"
 "http://www.w3.org/TR/2001/REC-SVG-20010904/DTD/svg10.dtd">
<svg version="1.0" xmlns="http://www.w3.org/2000/svg"
 width="512.000000pt" height="512.000000pt" viewBox="0 0 512.000000 512.000000"
 preserveAspectRatio="xMidYMid meet">
<metadata>
Created by potrace 1.14, written by Peter Selinger 2001-2017
</metadata>
<g transform="translate(0.000000,512.000000) scale(0.100000,-0.100000)"
fill="#000000" stroke="none">
<path d="M1860 4705 c0 -8 7 -15 15 -15 8 0 15 -4 15 -10 0 -5 7 -10 15 -10 8
0 15 -7 15 -15 0 -8 7 -15 15 -15 8 0 15 -4 15 -10 0 -5 7 -10 15 -10 9 0 15
-9 15 -24 0 -16 7 -26 21 -29 18 -5 21 -12 18 -51 -3 -37 -1 -46 14 -50 14 -3
18 -12 15 -37 -3 -33 -28 -55 -28 -25 0 9 -7 16 -15 16 -8 0 -15 5 -15 10 0 6
-13 10 -29 10 -16 0 -31 6 -35 15 -3 8 -11 15 -17 15 -6 0 -22 11 -35 25 -13
14 -34 25 -49 25 -14 0 -25 5 -25 10 0 6 -22 10 -50 10 -27 0 -50 -4 -50 -10
0 -5 16 -10 35 -10 24 0 35 -5 35 -15 0 -8 7 -15 15 -15 8 0 15 -4 15 -10 0
-5 14 -10 30 -10 20 0 30 -5 30 -15 0 -8 6 -15 14 -15 8 0 17 -7 20 -16 3 -8
10 -12 16 -9 5 3 10 -1 10 -9 0 -9 6 -16 14 -16 8 0 17 -7 20 -16 3 -8 10 -12
16 -9 5 3 10 -1 10 -9 0 -9 9 -16 20 -16 11 0 20 -4 20 -10 0 -5 -13 -10 -30
-10 -16 0 -30 5 -30 10 0 6 -70 10 -190 10 -120 0 -190 -4 -190 -10 0 -5 -13
-10 -30 -10 -20 0 -30 -5 -30 -15 0 -11 -12 -15 -45 -15 -25 0 -45 -4 -45 -10
0 -5 -7 -10 -15 -10 -9 0 -18 -7 -21 -15 -4 -8 -12 -15 -20 -15 -8 0 -14 -4
-14 -10 0 -5 -11 -10 -25 -10 -14 0 -28 -7 -31 -15 -4 -8 -12 -15 -20 -15 -8
0 -14 -4 -14 -10 0 -5 -7 -10 -15 -10 -8 0 -15 -7 -15 -15 0 -8 -7 -15 -15
-15 -8 0 -15 -4 -15 -10 0 -5 -7 -10 -15 -10 -10 0 -15 -10 -15 -30 0 -20 5
-30 15 -30 8 0 15 7 15 15 0 13 22 15 140 15 87 0 140 -4 140 -10 0 -5 20 -10
45 -10 33 0 45 -4 45 -15 0 -8 7 -15 15 -15 8 0 15 -4 15 -9 0 -6 14 -11 32
-13 17 -2 33 -9 36 -15 3 -10 -33 -13 -157 -13 -101 0 -161 -4 -161 -10 0 -5
-13 -10 -30 -10 -20 0 -30 -5 -30 -15 0 -10 10 -15 34 -15 19 0 36 4 38 9 2 4
49 11 106 14 87 6 102 5 102 -8 0 -8 -7 -15 -15 -15 -8 0 -15 -7 -15 -15 0 -9
-6 -12 -15 -9 -9 4 -15 0 -15 -10 0 -11 -9 -16 -30 -16 -16 0 -30 -4 -30 -10
0 -5 -7 -10 -15 -10 -8 0 -15 -7 -15 -15 0 -8 -7 -15 -15 -15 -8 0 -15 -4 -15
-10 0 -5 -7 -10 -15 -10 -9 0 -18 -7 -21 -15 -4 -8 -11 -15 -16 -15 -6 0 -21
-11 -34 -25 -13 -14 -28 -25 -34 -25 -5 0 -10 -11 -10 -25 0 -16 -6 -25 -15
-25 -8 0 -15 -4 -15 -10 0 -5 -7 -10 -15 -10 -9 0 -15 -9 -15 -25 0 -16 -6
-25 -15 -25 -10 0 -15 -10 -15 -30 0 -20 5 -30 15 -30 8 0 15 7 15 15 0 8 7
15 15 15 8 0 15 5 15 10 0 6 20 10 45 10 31 0 47 5 51 15 5 12 30 15 139 15
109 0 134 -3 139 -15 4 -10 20 -15 51 -15 25 0 45 -4 45 -10 0 -5 -6 -10 -14
-10 -8 0 -16 -7 -20 -15 -3 -8 -12 -15 -19 -15 -18 0 -17 -42 0 -48 7 -2 16 3
19 12 8 22 94 23 94 1 0 -8 -7 -15 -15 -15 -9 0 -15 -9 -15 -21 0 -12 -8 -23
-20 -26 -11 -3 -17 -9 -14 -14 3 -5 -4 -9 -15 -9 -16 0 -21 -6 -21 -25 0 -16
-6 -25 -15 -25 -11 0 -15 -11 -15 -40 0 -27 -4 -39 -12 -37 -9 1 -14 -15 -16
-50 l-3 -53 35 0 c25 0 36 4 36 15 0 8 7 15 15 15 8 0 15 5 15 10 0 6 14 10
30 10 20 0 30 5 30 15 0 10 10 15 30 15 17 0 30 5 30 10 0 6 13 10 29 10 16 0
31 6 35 15 4 12 31 15 156 15 115 0 150 -3 150 -13 0 -7 -12 -14 -27 -15 -16
-1 -29 -7 -31 -12 -5 -13 -182 -13 -182 0 0 6 -9 10 -20 10 -11 0 -20 -4 -20
-10 0 -5 9 -10 21 -10 33 0 16 -25 -19 -28 -18 -2 -32 -7 -32 -13 0 -5 -25 -9
-55 -9 -46 0 -60 -4 -78 -23 -12 -13 -30 -27 -40 -30 -15 -6 -18 -16 -16 -64
2 -48 0 -59 -14 -61 -9 -2 -17 -8 -17 -13 0 -5 -7 -9 -15 -9 -8 0 -15 -7 -15
-15 0 -10 -10 -15 -30 -15 -16 0 -30 -4 -30 -10 0 -5 -7 -10 -15 -10 -8 0 -15
-7 -15 -15 0 -8 -7 -15 -15 -15 -8 0 -15 -4 -15 -10 0 -5 -7 -10 -15 -10 -8 0
-15 -7 -15 -15 0 -11 -11 -15 -36 -15 -21 0 -33 -4 -29 -10 4 -6 -8 -10 -29
-10 -25 0 -36 -4 -36 -15 0 -12 -15 -15 -75 -15 -43 0 -75 -4 -75 -10 0 -5 -7
-10 -15 -10 -8 0 -15 -7 -15 -15 0 -10 -11 -15 -35 -15 -19 0 -35 -4 -35 -10
0 -5 -7 -10 -15 -10 -8 0 -15 -7 -15 -15 0 -8 -7 -15 -15 -15 -8 0 -15 -4 -15
-10 0 -5 -13 -10 -30 -10 -20 0 -30 -5 -30 -15 0 -10 -10 -15 -30 -15 -16 0
-30 -4 -30 -10 0 -6 -27 -10 -60 -10 -45 0 -62 -4 -66 -15 -5 -11 -21 -15 -60
-15 -51 0 -54 1 -54 25 0 18 -5 25 -20 25 -11 0 -20 7 -20 15 0 10 -10 15 -30
15 -20 0 -30 -5 -30 -15 0 -10 -10 -15 -30 -15 -20 0 -30 5 -30 15 0 8 -6 15
-14 15 -8 0 -16 5 -18 12 -3 7 -11 9 -24 4 -18 -8 -18 -8 4 -17 12 -4 22 -13
22 -19 0 -5 5 -10 10 -10 25 0 53 -39 47 -66 -3 -20 0 -28 14 -31 11 -3 19
-12 19 -19 0 -8 7 -14 15 -14 8 0 15 -4 15 -10 0 -5 7 -10 15 -10 8 0 15 -7
15 -15 0 -8 7 -15 15 -15 8 0 15 -4 15 -10 0 -5 -13 -10 -30 -10 -16 0 -30 -4
-30 -10 0 -5 -20 -10 -45 -10 -31 0 -47 -5 -51 -15 -4 -8 -11 -15 -16 -15 -6
0 -21 -11 -34 -25 -13 -14 -27 -25 -33 -25 -5 0 -11 -4 -13 -9 -1 -5 -15 -13
-30 -16 -25 -6 -28 -5 -28 19 0 16 6 26 15 26 8 0 15 7 15 15 0 8 7 15 15 15
8 0 15 5 15 10 0 6 7 10 15 10 9 0 18 7 21 15 4 8 12 15 20 15 8 0 14 6 14 13
0 9 10 12 30 9 17 -2 30 -8 30 -13 0 -5 14 -9 30 -9 20 0 30 5 30 15 0 10 -10
15 -30 15 -25 0 -30 4 -30 25 0 16 -6 25 -15 25 -8 0 -15 5 -15 10 0 6 -7 10
-15 10 -8 0 -15 7 -15 15 0 8 -7 15 -15 15 -8 0 -15 5 -15 10 0 13 -37 13 -42
0 -1 -5 -49 -10 -105 -11 l-103 -1 0 -39 c0 -28 4 -39 15 -39 8 0 15 -6 15
-13 0 -7 12 -12 28 -13 131 -1 182 -5 182 -14 0 -5 -7 -10 -15 -10 -8 0 -15
-4 -15 -10 0 -5 -7 -10 -15 -10 -8 0 -15 -7 -15 -15 0 -8 -7 -15 -15 -15 -8 0
-15 -4 -15 -10 0 -5 -7 -10 -15 -10 -22 0 -19 -42 5 -63 22 -18 70 -23 70 -7
0 6 7 10 15 10 9 0 18 7 21 15 4 8 12 15 20 15 8 0 14 5 14 10 0 6 7 10 15 10
8 0 15 7 15 15 0 12 13 15 59 15 44 0 60 4 65 16 4 11 13 13 28 8 13 -3 24
-11 26 -15 2 -5 10 -9 17 -9 7 0 16 -11 19 -25 10 -38 36 -32 36 8 0 31 -27
67 -49 67 -5 0 -11 7 -15 15 -3 8 -12 15 -21 15 -8 0 -15 5 -15 10 0 6 -7 10
-15 10 -8 0 -15 7 -15 15 0 8 -7 15 -15 15 -8 0 -15 5 -15 10 0 6 -7 10 -15
10 -11 0 -15 12 -15 50 0 49 1 50 30 50 25 0 30 -4 30 -25 0 -15 6 -25 14 -25
8 0 17 -7 20 -16 3 -8 10 -12 16 -9 5 3 10 -1 10 -9 0 -9 6 -16 14 -16 8 0 17
-7 20 -16 3 -8 10 -12 16 -9 6 3 13 -1 16 -9 7 -18 34 -22 34 -6 0 6 14 10 30
10 17 0 30 -4 30 -10 0 -5 7 -10 15 -10 8 0 15 -7 15 -15 0 -8 7 -15 15 -15 9
0 15 -9 15 -25 0 -16 6 -25 15 -25 10 0 15 -11 15 -35 0 -24 -5 -35 -15 -35
-10 0 -15 -11 -15 -35 0 -24 -5 -35 -15 -35 -11 0 -15 -11 -15 -40 0 -29 4
-40 15 -40 9 0 15 -9 15 -25 0 -21 -5 -25 -30 -25 -20 0 -30 5 -30 15 0 8 -7
15 -15 15 -11 0 -15 12 -15 50 0 38 -4 50 -15 50 -10 0 -15 11 -15 35 0 24 -5
35 -15 35 -8 0 -15 -4 -15 -10 0 -5 -7 -10 -15 -10 -8 0 -15 5 -15 10 0 6 -6
10 -14 10 -8 0 -16 7 -20 15 -3 8 -12 15 -21 15 -8 0 -15 5 -15 10 0 6 -7 10
-15 10 -8 0 -15 -7 -15 -15 0 -8 7 -15 15 -15 8 0 15 -4 15 -10 0 -5 7 -10 15
-10 8 0 15 -7 15 -15 0 -8 7 -15 15 -15 8 0 15 -4 15 -10 0 -5 7 -10 15 -10 8
0 15 -7 15 -15 0 -8 7 -15 15 -15 11 0 15 -12 15 -46 0 -37 4 -47 20 -51 11
-3 17 -9 14 -14 -3 -5 2 -9 11 -9 8 0 18 -7 21 -15 4 -9 19 -15 35 -15 19 0
29 5 29 15 0 8 7 15 15 15 9 0 15 9 15 25 0 16 -6 25 -15 25 -10 0 -15 11 -15
35 0 24 5 35 15 35 9 0 15 9 15 25 0 22 4 25 35 25 24 0 35 5 35 15 0 12 13
15 60 15 33 0 60 4 60 10 0 6 48 10 125 10 104 0 125 2 125 15 0 11 12 15 45
15 25 0 45 5 45 10 0 6 7 10 15 10 8 0 15 7 15 15 0 8 7 15 15 15 8 0 15 5 15
10 0 6 14 10 30 10 18 0 33 6 36 15 4 9 19 15 35 15 16 0 29 5 29 10 0 6 32
10 75 10 60 0 75 3 75 15 0 8 7 15 15 15 8 0 15 -7 15 -15 0 -8 7 -15 15 -15
9 0 15 -9 15 -25 0 -21 5 -25 30 -25 23 0 30 -4 30 -20 0 -11 -7 -20 -15 -20
-8 0 -15 -7 -15 -15 0 -8 -7 -15 -15 -15 -9 0 -15 -9 -15 -25 0 -23 4 -25 45
-25 25 0 45 -4 45 -10 0 -5 -13 -10 -30 -10 -20 0 -30 -5 -30 -15 0 -11 -12
-15 -45 -15 -25 0 -45 -4 -45 -10 0 -5 -13 -10 -30 -10 -20 0 -30 -5 -30 -15
0 -12 -19 -15 -110 -15 -63 0 -110 -4 -110 -10 0 -5 -28 -10 -62 -12 -44 -2
-62 -7 -60 -15 1 -9 -10 -13 -33 -13 -19 0 -35 -4 -35 -10 0 -5 -7 -10 -15
-10 -9 0 -15 -9 -15 -25 0 -21 -5 -25 -30 -25 -20 0 -30 -5 -30 -15 0 -8 -7
-15 -15 -15 -8 0 -15 -4 -15 -10 0 -5 -7 -10 -15 -10 -9 0 -15 -9 -15 -25 0
-16 -6 -25 -15 -25 -8 0 -15 -7 -15 -15 0 -8 -7 -15 -15 -15 -9 0 -15 -9 -15
-25 0 -18 -5 -25 -20 -25 -17 0 -19 -5 -14 -25 5 -19 2 -25 -10 -25 -9 0 -16
-7 -16 -15 0 -11 -12 -15 -50 -15 -27 0 -50 -4 -50 -10 0 -5 -7 -10 -15 -10
-11 0 -15 -11 -15 -40 0 -27 -4 -39 -12 -38 -8 2 -14 -9 -16 -24 -2 -16 -9
-28 -18 -28 -10 0 -14 -13 -14 -50 0 -38 -4 -50 -15 -50 -9 0 -15 -9 -15 -21
0 -12 -8 -23 -20 -26 -11 -3 -18 -9 -15 -13 3 -4 -4 -10 -15 -13 -12 -3 -20
-14 -20 -26 0 -12 -6 -21 -15 -21 -8 0 -15 -7 -15 -15 0 -8 -7 -15 -15 -15 -9
0 -15 -9 -15 -25 0 -16 -6 -25 -15 -25 -9 0 -15 -9 -15 -25 0 -16 6 -25 15
-25 12 0 15 -19 15 -115 0 -96 3 -115 15 -115 8 0 15 -4 15 -10 0 -5 6 -10 14
-10 8 0 16 -7 20 -15 3 -8 13 -15 21 -15 9 0 13 -4 10 -10 -3 -5 3 -10 14 -10
16 0 21 -6 21 -25 0 -16 -6 -25 -15 -25 -9 0 -15 -9 -15 -25 0 -18 -5 -25 -20
-25 -16 0 -20 -7 -20 -30 0 -30 -29 -70 -51 -70 -7 0 -9 -10 -5 -25 l6 -25
-220 0 c-140 0 -220 -4 -220 -10 0 -5 -7 -10 -15 -10 -10 0 -15 -10 -15 -30 0
-20 5 -30 15 -30 9 0 15 -9 15 -25 0 -16 6 -25 15 -25 9 0 15 -9 15 -25 0 -16
6 -25 15 -25 9 0 15 -9 15 -25 0 -15 6 -25 14 -25 8 0 17 -7 20 -16 3 -8 10
-13 15 -9 5 3 11 -7 13 -22 2 -16 8 -27 16 -26 6 2 12 -4 12 -12 0 -10 11 -15
35 -15 19 0 35 -4 35 -10 0 -5 14 -10 30 -10 20 0 30 -5 30 -15 0 -11 12 -15
44 -15 30 0 46 -5 50 -15 4 -11 13 -14 31 -9 19 5 25 2 25 -10 0 -9 6 -16 14
-16 8 0 16 -7 20 -15 4 -10 14 -13 36 -9 23 5 30 3 30 -10 0 -13 11 -16 60
-16 47 0 60 3 60 15 0 10 10 15 30 15 17 0 30 5 30 10 0 6 16 10 35 10 31 0
35 3 35 25 0 16 6 25 15 25 8 0 15 7 15 15 0 8 7 15 15 15 9 0 15 9 15 25 0
16 6 25 15 25 8 0 15 5 15 10 0 6 7 10 15 10 8 0 15 7 15 15 0 8 7 15 15 15 8
0 15 4 15 9 0 5 9 11 20 14 13 3 18 11 15 26 -3 16 1 21 16 21 10 0 19 7 19
15 0 8 6 14 13 12 7 -1 13 10 15 26 2 15 8 25 13 22 5 -4 12 1 15 9 3 9 12 16
20 16 8 0 14 10 14 25 0 16 6 25 15 25 8 0 15 7 15 15 0 8 7 15 15 15 8 0 15
5 15 10 0 6 7 10 15 10 8 0 15 7 15 15 0 8 7 15 15 15 9 0 15 9 15 25 0 16 6
25 15 25 8 0 15 5 15 10 0 6 16 10 35 10 24 0 35 5 35 15 0 10 10 15 30 15 17
0 30 5 30 10 0 6 7 10 15 10 8 0 15 7 15 15 0 8 7 15 15 15 8 0 15 5 15 10 0
6 7 10 15 10 9 0 15 9 15 25 0 21 5 25 30 25 20 0 30 5 30 15 0 8 7 15 15 15
8 0 15 5 15 10 0 6 16 10 35 10 24 0 35 5 35 15 0 8 7 15 15 15 8 0 15 5 15
10 0 6 7 10 15 10 8 0 15 7 15 15 0 8 7 15 15 15 10 0 15 11 15 35 0 24 5 35
15 35 11 0 15 12 15 50 0 38 4 50 15 50 9 0 15 9 15 25 0 21 5 25 30 25 20 0
30 5 30 15 0 8 7 15 15 15 8 0 15 5 15 10 0 6 14 10 30 10 18 0 33 6 36 15 4
8 12 15 20 15 8 0 14 5 14 10 0 6 20 10 45 10 33 0 45 4 45 15 0 8 7 15 15 15
8 0 15 5 15 10 0 6 7 10 15 10 8 0 15 7 15 15 0 10 10 15 30 15 17 0 30 5 30
10 0 6 7 10 15 10 9 0 18 7 21 15 4 9 19 15 35 15 16 0 29 5 29 10 0 6 14 10
30 10 20 0 30 5 30 15 0 12 13 15 60 15 33 0 60 4 60 10 0 6 27 10 60 10 45 0
62 4 66 15 5 11 24 15 80 15 59 0 74 -3 74 -15 0 -12 13 -15 60 -15 45 0 62 4
66 15 5 12 27 15 110 15 63 0 104 4 104 10 0 6 33 10 80 10 64 0 80 3 80 15 0
11 12 15 45 15 33 0 45 -4 45 -15 0 -8 7 -15 15 -15 8 0 15 -4 15 -10 0 -5 14
-10 30 -10 25 0 30 -4 30 -25 0 -15 6 -25 14 -25 8 0 16 -7 20 -15 4 -11 23
-15 81 -15 73 0 75 -1 75 -25 0 -16 6 -25 15 -25 11 0 15 -12 15 -50 0 -38 4
-50 15 -50 10 0 15 -11 15 -35 0 -24 5 -35 15 -35 8 0 15 -7 15 -15 0 -8 7
-15 15 -15 10 0 15 -11 15 -35 0 -24 5 -35 15 -35 11 0 15 -11 15 -40 0 -29 4
-40 15 -40 8 0 15 -9 15 -20 0 -11 7 -23 15 -26 8 -4 15 -15 15 -26 0 -11 8
-22 20 -25 11 -3 20 -9 20 -14 0 -5 14 -9 30 -9 20 0 30 -5 30 -15 0 -12 17
-15 95 -15 78 0 95 3 95 15 0 10 10 15 30 15 17 0 30 5 30 10 0 6 7 10 15 10
8 0 15 7 15 15 0 8 7 15 15 15 8 0 15 5 15 10 0 6 7 10 15 10 8 0 15 7 15 15
0 8 9 15 21 15 11 0 18 4 15 9 -3 5 3 11 14 14 12 3 20 14 20 26 0 12 6 21 15
21 11 0 15 11 15 40 0 23 5 40 11 40 7 0 22 11 35 25 13 14 28 25 34 25 5 0
10 7 10 15 0 8 7 15 15 15 8 0 15 9 15 20 0 11 7 20 15 20 11 0 15 11 15 40 0
29 4 40 15 40 8 0 15 5 15 10 0 6 7 10 15 10 12 0 15 19 15 115 0 96 -3 115
-15 115 -12 0 -15 13 -15 55 0 42 -3 55 -15 55 -9 0 -15 9 -15 24 0 24 -2 24
-57 19 -32 -3 -59 -10 -61 -15 -2 -4 -19 -8 -38 -8 -30 0 -34 3 -34 25 0 16 6
25 15 25 8 0 15 4 15 9 0 5 9 11 20 14 15 4 20 14 20 41 0 20 4 36 10 36 12 0
50 32 50 42 0 5 -7 8 -15 8 -9 0 -15 9 -15 25 0 16 -6 25 -15 25 -10 0 -15 10
-15 34 0 25 -5 35 -20 39 -30 8 -29 77 1 77 17 0 20 5 17 38 -2 25 -8 37 -18
37 -8 0 -15 9 -15 21 -1 12 -8 29 -18 38 -9 10 -17 24 -17 32 0 8 -6 13 -12
11 -8 -1 -14 12 -16 36 -2 24 -8 37 -18 37 -8 0 -14 7 -14 15 0 8 -7 15 -15
15 -8 0 -15 5 -15 10 0 6 -7 10 -15 10 -8 0 -15 7 -15 15 0 8 -7 15 -15 15 -9
0 -15 9 -15 25 0 16 -6 25 -15 25 -8 0 -15 5 -15 10 0 6 -6 10 -14 10 -8 0
-16 7 -20 15 -3 8 -13 15 -21 15 -9 0 -13 5 -10 10 3 6 -3 10 -14 10 -12 0
-21 7 -21 15 0 8 -7 15 -15 15 -8 0 -15 7 -15 15 0 8 -6 14 -12 13 -8 -2 -13
7 -12 20 0 12 -5 22 -13 22 -8 0 -16 7 -19 15 -4 8 -12 15 -20 15 -8 0 -14 5
-14 10 0 6 -7 10 -15 10 -8 0 -15 7 -15 15 0 12 -19 15 -110 15 -88 0 -110 -3
-110 -14 0 -11 -17 -14 -77 -14 -48 0 -79 -4 -81 -11 -2 -7 -32 -11 -78 -11
l-74 0 0 34 c0 25 5 35 20 39 18 5 20 14 20 102 0 88 -2 97 -20 102 -16 4 -20
14 -20 49 0 33 4 44 15 44 9 0 18 7 21 15 4 8 12 15 20 15 8 0 14 10 14 25 0
16 6 25 15 25 9 0 15 9 15 25 0 16 6 25 15 25 9 0 15 9 15 25 0 16 6 25 15 25
8 0 15 5 15 10 0 6 7 10 15 10 13 0 15 21 15 125 0 104 2 125 15 125 12 0 15
14 15 65 0 51 3 65 15 65 10 0 15 11 15 35 0 24 5 35 15 35 11 0 15 11 15 40
0 29 -4 40 -15 40 -8 0 -15 7 -15 15 0 8 -7 15 -15 15 -8 0 -15 5 -15 10 0 6
-7 10 -15 10 -8 0 -15 7 -15 15 0 10 -10 15 -30 15 -16 0 -30 5 -30 10 0 6
-13 10 -30 10 -20 0 -30 5 -30 15 0 8 -9 15 -21 15 -11 0 -17 5 -14 10 4 6
-33 10 -104 10 -92 0 -111 3 -111 15 0 10 -10 15 -29 15 -16 0 -31 6 -34 14
-3 8 -16 12 -31 11 -32 -4 -43 11 -14 18 18 5 19 8 9 21 -15 17 -53 16 -59 -2
-2 -7 -10 -12 -17 -12 -7 0 -16 -7 -19 -15 -4 -11 -17 -15 -46 -13 l-40 2 0
64 c0 36 4 61 9 57 15 -9 25 15 11 28 -9 9 -14 8 -24 -5 -7 -10 -18 -18 -25
-18 -6 0 -11 -7 -11 -16 0 -8 -5 -12 -10 -9 -6 3 -13 -1 -16 -9 -3 -9 -12 -16
-20 -16 -8 0 -14 -7 -14 -16 0 -8 -5 -12 -10 -9 -6 3 -13 -1 -16 -9 -7 -17
-60 -22 -66 -7 -1 6 -22 11 -45 12 -28 2 -43 8 -43 16 0 10 -21 13 -80 13 -64
0 -80 -3 -80 -15 0 -8 -7 -15 -15 -15 -8 0 -15 -4 -15 -10 0 -5 -7 -10 -15
-10 -8 0 -15 -7 -15 -15 0 -8 -7 -15 -15 -15 -8 0 -15 -4 -15 -10 0 -5 -6 -10
-14 -10 -8 0 -16 -7 -20 -15 -3 -8 -13 -15 -21 -15 -9 0 -13 -4 -10 -10 4 -6
-13 -10 -43 -10 -46 0 -50 2 -45 21 4 15 0 22 -16 26 -14 3 -21 13 -21 29 0
15 -6 24 -15 24 -9 0 -15 9 -15 25 0 16 -6 25 -15 25 -9 0 -15 9 -15 25 0 16
-6 25 -15 25 -9 0 -15 9 -15 25 0 15 -6 25 -14 25 -8 0 -17 7 -20 16 -3 8 -10
12 -16 9 -5 -3 -10 1 -10 9 0 9 -6 16 -14 16 -8 0 -17 7 -20 16 -3 8 -10 12
-16 9 -5 -3 -10 1 -10 9 0 9 -6 16 -14 16 -8 0 -17 7 -20 16 -4 11 -14 15 -32
11 -16 -3 -28 1 -31 9 -3 8 -18 14 -34 14 -19 0 -29 5 -29 15 0 10 -10 15 -30
15 -16 0 -30 5 -30 10 0 6 -38 10 -95 10 -78 0 -95 -3 -95 -15z m1030 -326 c0
-16 27 -39 45 -39 14 0 13 -4 -6 -25 -28 -28 -39 -31 -39 -10 0 10 -11 15 -35
15 -19 0 -35 5 -35 10 0 6 -13 10 -30 10 -25 0 -30 4 -30 25 0 24 2 25 65 25
40 0 65 -4 65 -11z m150 -139 c0 -82 -3 -100 -15 -100 -9 0 -15 -9 -15 -25 0
-16 -6 -25 -15 -25 -8 0 -15 -4 -15 -10 0 -5 -7 -10 -15 -10 -8 0 -15 -7 -15
-15 0 -8 -7 -15 -15 -15 -8 0 -15 -4 -15 -10 0 -5 -7 -10 -15 -10 -8 0 -15 -7
-15 -15 0 -10 -11 -15 -35 -15 -24 0 -35 5 -35 15 0 8 -7 15 -15 15 -8 0 -15
5 -15 10 0 6 -13 10 -30 10 -20 0 -30 5 -30 15 0 8 -7 15 -15 15 -9 0 -15 10
-15 26 0 24 2 25 60 23 42 -2 60 -6 60 -16 0 -8 12 -13 35 -13 35 0 47 16 20
26 -8 4 -15 17 -15 31 0 13 4 21 10 18 6 -3 10 1 10 9 0 9 -4 16 -10 16 -5 0
-10 8 -10 18 1 16 1 16 14 0 18 -24 106 -26 106 -3 0 11 -12 15 -45 15 -25 0
-45 5 -45 10 0 6 7 10 15 10 9 0 15 9 15 25 0 16 6 25 15 25 8 0 15 7 15 15 0
8 7 15 15 15 8 0 15 5 15 10 0 6 14 10 30 10 l30 0 0 -100z m-250 65 c0 -10
10 -15 29 -15 17 0 31 -6 35 -16 3 -8 10 -12 16 -9 5 3 10 -1 10 -9 0 -9 -7
-16 -15 -16 -8 0 -15 -4 -15 -10 0 -5 -20 -10 -45 -10 -33 0 -45 -4 -45 -15 0
-8 5 -15 10 -15 10 0 50 -36 50 -45 0 -3 -33 -5 -74 -5 -69 0 -75 -2 -78 -22
-4 -25 -28 -37 -28 -14 0 14 -22 16 -170 16 l-170 0 0 24 0 25 182 -1 c131 -1
183 2 186 10 3 9 -41 12 -167 12 l-171 0 0 25 0 25 170 0 c134 0 170 -3 170
-13 0 -9 13 -13 42 -11 48 2 66 24 20 24 -18 0 -32 6 -36 16 -3 8 -10 12 -16
9 -6 -4 -10 6 -10 24 l0 31 60 0 c47 0 60 -3 60 -15z m750 -50 c0 -12 15 -15
75 -15 43 0 75 -4 75 -10 0 -5 13 -10 29 -10 16 0 31 -6 35 -15 3 -8 12 -15
21 -15 8 0 15 -4 15 -10 0 -5 11 -10 25 -10 14 0 28 -7 31 -15 4 -8 12 -15 20
-15 10 0 14 -15 14 -60 0 -44 -4 -60 -14 -60 -17 0 -26 -31 -26 -87 0 -32 -4
-43 -15 -43 -10 0 -15 -11 -15 -35 0 -19 -4 -35 -9 -35 -5 0 -13 -40 -17 -90
-5 -66 -10 -90 -20 -90 -8 0 -14 -10 -14 -25 0 -16 -6 -25 -15 -25 -10 0 -15
-11 -15 -35 0 -24 -5 -35 -15 -35 -10 0 -15 -10 -15 -31 0 -18 -4 -28 -10 -24
-6 3 -13 -1 -16 -9 -3 -9 -12 -16 -20 -16 -8 0 -14 -10 -14 -25 0 -15 -6 -25
-14 -25 -8 0 -17 -7 -20 -16 -3 -8 -10 -12 -16 -9 -5 3 -10 -1 -10 -9 0 -9 -7
-16 -15 -16 -12 0 -15 19 -15 110 0 89 -3 112 -15 116 -12 5 -15 26 -15 99 0
56 -4 97 -11 100 -17 11 -19 2 -26 -89 -4 -63 -10 -86 -19 -86 -8 0 -14 -11
-14 -25 0 -16 -6 -25 -15 -25 -8 0 -15 -7 -15 -16 0 -8 -5 -12 -10 -9 -6 3
-13 -1 -16 -9 -8 -22 -64 -22 -64 0 0 10 -6 14 -15 10 -11 -4 -15 1 -15 19 0
15 -6 25 -14 25 -11 0 -16 15 -18 53 -2 35 -7 51 -15 49 -8 -1 -13 9 -13 28 0
20 -5 30 -15 30 -8 0 -15 5 -15 10 0 6 6 9 13 8 7 -2 13 11 15 35 2 24 8 37
18 37 8 0 14 10 14 25 0 16 6 25 15 25 8 0 15 7 15 15 0 8 7 15 15 15 8 0 15
5 15 10 0 6 7 10 15 10 8 0 15 -4 15 -10 0 -5 6 -10 14 -10 8 0 16 -6 19 -12
5 -18 269 -17 275 0 2 7 10 12 18 12 8 0 14 4 14 9 0 5 9 11 20 14 11 3 20 10
20 16 0 6 -9 11 -20 11 -11 0 -20 -4 -20 -10 0 -5 -7 -10 -15 -10 -8 0 -15 -7
-15 -15 0 -22 -175 -22 -184 0 -4 12 -15 14 -46 9 -31 -5 -41 -3 -46 10 -3 9
-12 16 -20 16 -8 0 -14 7 -14 15 0 8 -7 15 -15 15 -8 0 -15 5 -15 10 0 6 -7
10 -15 10 -10 0 -15 11 -15 35 0 24 5 35 15 35 10 0 15 10 15 30 0 20 5 30 15
30 9 0 15 9 15 25 0 15 6 25 14 25 9 0 16 16 20 44 8 49 12 51 109 55 36 1 47
-3 47 -14z m-690 -75 c0 -5 -4 -10 -10 -10 -5 0 -10 5 -10 10 0 6 5 10 10 10
6 0 10 -4 10 -10z m410 -200 c0 -5 -7 -10 -15 -10 -9 0 -18 -7 -21 -15 -9 -24
-24 -17 -24 10 0 21 5 25 30 25 17 0 30 -4 30 -10z m-70 -50 c0 -5 -4 -10 -10
-10 -5 0 -10 5 -10 10 0 6 5 10 10 10 6 0 10 -4 10 -10z m-582 -28 c2 -7 -3
-12 -12 -12 -9 0 -16 7 -16 16 0 17 22 14 28 -4z m-278 -28 c0 -8 5 -12 10 -9
6 3 13 -1 16 -9 3 -9 12 -16 20 -16 8 0 14 -7 14 -15 0 -8 7 -15 15 -15 9 0
15 -9 15 -25 0 -16 6 -25 15 -25 10 0 15 -11 15 -35 0 -24 5 -35 15 -35 8 0
15 4 15 9 0 5 9 11 20 14 15 4 20 14 20 41 0 25 4 36 15 36 8 0 15 5 15 10 0
6 7 10 15 10 8 0 15 7 15 15 0 11 12 15 45 15 41 0 45 -2 45 -25 0 -23 -4 -25
-45 -25 -28 0 -52 -6 -65 -17 -24 -21 -26 -33 -5 -33 8 0 15 7 15 15 0 12 14
15 65 15 51 0 65 -3 65 -15 0 -8 7 -15 15 -15 8 0 15 -4 15 -10 0 -5 7 -10 15
-10 10 0 15 11 16 38 1 20 1 40 0 45 0 4 6 7 14 7 8 0 15 -4 15 -10 0 -5 7
-10 15 -10 9 0 15 -9 15 -25 0 -16 6 -25 15 -25 10 0 15 -10 15 -33 0 -20 8
-39 20 -50 15 -13 20 -29 20 -67 0 -38 -5 -54 -20 -67 -11 -10 -20 -28 -20
-40 0 -14 -6 -23 -15 -23 -10 0 -15 -11 -15 -35 0 -24 -5 -35 -15 -35 -8 0
-15 -7 -15 -15 0 -8 -7 -15 -15 -15 -8 0 -15 -4 -15 -10 0 -5 -7 -10 -15 -10
-8 0 -15 -7 -15 -15 0 -8 -7 -15 -15 -15 -8 0 -15 -4 -15 -10 0 -6 -42 -10
-105 -10 -58 0 -105 4 -105 9 0 4 -21 11 -47 14 -26 3 -49 10 -51 16 -2 6 -10
11 -18 11 -8 0 -14 4 -14 9 0 5 -13 12 -30 16 -16 4 -30 11 -30 16 0 5 -7 9
-15 9 -8 0 -15 5 -15 10 0 6 -7 10 -15 10 -9 0 -18 7 -21 15 -4 8 -12 15 -20
15 -8 0 -14 -7 -14 -15 0 -8 6 -15 14 -15 8 0 17 -7 20 -16 3 -8 10 -13 15
-10 5 3 11 -1 15 -9 3 -8 12 -15 21 -15 8 0 15 -4 15 -10 0 -5 -16 -10 -35
-10 -19 0 -35 5 -35 10 0 6 -13 10 -30 10 -20 0 -30 5 -30 15 0 8 -7 15 -15
15 -8 0 -15 5 -15 10 0 6 -7 10 -15 10 -9 0 -15 9 -15 25 0 21 5 25 29 25 17
0 31 -6 35 -16 3 -8 10 -12 16 -9 19 12 10 33 -20 47 -26 11 -30 18 -30 50 0
27 -4 38 -15 38 -8 0 -15 9 -15 20 0 11 7 20 15 20 8 0 15 -4 15 -10 0 -5 7
-10 15 -10 8 0 15 -7 15 -15 0 -8 6 -15 14 -15 8 0 16 -10 18 -22 2 -12 9 -23
16 -26 8 -2 12 11 12 45 0 62 22 83 85 83 48 0 60 14 23 24 -39 10 -68 7 -74
-9 -11 -27 -24 -16 -24 19 0 34 1 35 42 38 38 3 69 28 35 28 -9 0 -17 5 -19
12 -3 7 -18 12 -34 13 -24 0 -29 4 -29 25 0 16 6 25 15 25 9 0 15 10 16 25 0
14 6 24 12 22 7 -1 15 5 18 13 8 20 34 19 34 -1z m650 -119 c0 -69 -3 -85 -15
-85 -8 0 -15 -7 -15 -15 0 -8 -7 -15 -15 -15 -11 0 -15 11 -15 40 0 29 -4 40
-15 40 -10 0 -15 11 -15 35 0 24 5 35 15 35 9 0 15 9 15 25 0 21 5 25 30 25
l30 0 0 -85z m30 -181 c0 -10 6 -14 15 -10 11 4 15 -2 15 -24 0 -20 5 -30 15
-30 10 0 15 -11 15 -35 0 -24 5 -35 15 -35 8 0 15 -7 15 -15 0 -8 6 -15 14
-15 8 0 16 -10 18 -22 2 -13 8 -23 14 -23 14 0 44 -30 44 -44 0 -16 -20 -13
-26 4 -4 8 -12 15 -20 15 -8 0 -14 5 -14 10 0 6 -7 10 -15 10 -8 0 -15 -4 -15
-10 0 -5 -7 -10 -15 -10 -11 0 -15 -11 -15 -40 0 -29 -4 -40 -15 -40 -9 0 -15
-10 -15 -26 0 -49 -25 -19 -28 34 -2 37 -7 52 -18 52 -10 0 -14 12 -14 45 0
33 -4 45 -15 45 -12 0 -15 13 -15 55 0 44 3 53 15 49 12 -5 15 3 15 35 0 30 4
41 15 41 8 0 15 -7 15 -16z m497 -124 l1 -110 -44 0 c-40 0 -44 2 -44 25 0 15
-6 25 -14 25 -8 0 -16 7 -20 15 -3 8 -13 15 -21 15 -9 0 -13 5 -10 10 3 6 20
10 36 10 18 0 28 4 24 10 -3 6 1 10 10 10 8 0 18 7 21 15 4 8 12 15 20 15 9 0
14 12 14 35 0 21 5 35 13 35 9 0 12 -30 14 -110z m-597 -25 c0 -5 -11 -10 -25
-10 -14 0 -25 5 -25 10 0 6 11 10 25 10 14 0 25 -4 25 -10z m-20 -74 c0 -12
-48 -61 -60 -61 -5 0 -10 -7 -10 -15 0 -8 -7 -15 -15 -15 -8 0 -15 -4 -15 -10
0 -5 -7 -10 -15 -10 -8 0 -15 -4 -15 -9 0 -5 -13 -12 -30 -16 -16 -4 -30 -11
-30 -16 0 -5 -6 -9 -14 -9 -8 0 -16 -6 -19 -12 -6 -19 -388 -19 -395 0 -2 6
-12 12 -23 12 -10 0 -19 5 -19 10 0 6 75 10 205 10 176 0 205 2 205 15 0 12
-16 15 -80 15 -47 0 -80 4 -80 10 0 6 33 10 80 10 47 0 80 -4 80 -10 0 -5 7
-10 15 -10 8 0 15 5 15 10 0 6 7 10 15 10 8 0 15 7 15 15 0 10 10 15 30 15 17
0 30 5 30 10 0 6 7 10 15 10 8 0 15 7 15 15 0 8 9 15 21 15 11 0 18 4 14 9 -3
5 7 11 22 13 31 4 43 1 43 -11z m-530 -50 c0 -5 14 -12 30 -16 21 -5 30 -13
30 -26 0 -18 -8 -19 -110 -19 -67 0 -110 4 -110 10 0 6 -7 10 -15 10 -8 0 -15
7 -15 15 0 8 9 15 20 15 11 0 20 5 20 10 0 6 32 10 75 10 41 0 75 -4 75 -9z
m860 -1 c0 -5 -4 -10 -10 -10 -5 0 -10 5 -10 10 0 6 5 10 10 10 6 0 10 -4 10
-10z m31 -33 c-13 -13 -26 -3 -16 12 3 6 11 8 17 5 6 -4 6 -10 -1 -17z m39
-17 c0 -5 -7 -10 -15 -10 -8 0 -15 5 -15 10 0 6 7 10 15 10 8 0 15 -4 15 -10z
m-1150 -25 c0 -10 10 -15 30 -15 25 0 30 -4 30 -25 0 -16 6 -25 15 -25 9 0 15
-9 15 -25 0 -16 6 -25 15 -25 8 0 15 -6 15 -13 0 -26 45 -67 73 -67 22 0 27
-4 27 -25 0 -23 4 -25 45 -25 25 0 45 -4 45 -10 0 -5 14 -10 30 -10 20 0 30
-5 30 -15 0 -10 10 -15 30 -15 17 0 30 -4 30 -10 0 -5 6 -10 14 -10 8 0 16 -7
20 -15 3 -8 12 -15 21 -15 8 0 15 -4 15 -10 0 -5 14 -10 30 -10 20 0 30 -5 30
-15 0 -8 7 -15 15 -15 8 0 15 -4 15 -10 0 -5 7 -10 15 -10 9 0 15 9 15 25 0
18 5 25 20 25 16 0 20 7 20 30 0 29 29 70 50 70 6 0 10 15 10 34 0 21 6 36 15
40 9 3 15 19 15 41 0 24 4 35 15 35 8 0 15 7 15 15 0 9 6 12 15 9 11 -5 15 1
15 25 0 32 16 42 26 16 4 -8 12 -15 20 -15 8 0 14 -4 14 -10 0 -5 7 -10 15
-10 11 0 15 -11 15 -40 0 -29 4 -40 15 -40 9 0 15 -9 15 -25 0 -16 -6 -25 -15
-25 -8 0 -15 -4 -15 -10 0 -5 -7 -10 -15 -10 -8 0 -15 -7 -15 -15 0 -8 -7 -15
-15 -15 -9 0 -15 -9 -15 -25 0 -16 -6 -25 -15 -25 -8 0 -15 -4 -15 -10 0 -5
-7 -10 -15 -10 -8 0 -15 -7 -15 -15 0 -8 -7 -15 -15 -15 -8 0 -15 -4 -15 -9 0
-5 -8 -11 -17 -13 -11 -2 -18 -13 -18 -28 0 -15 -6 -25 -15 -25 -9 0 -16 -11
-18 -28 -2 -15 -8 -25 -13 -22 -5 4 -12 -1 -15 -9 -8 -20 -34 -21 -34 -1 0 8
-5 15 -10 15 -6 0 -13 -7 -16 -15 -8 -20 -30 -19 -38 1 -4 11 -14 15 -31 12
-17 -4 -25 -1 -25 8 0 9 -11 14 -29 14 -16 0 -31 6 -35 15 -3 9 -18 15 -36 15
-16 0 -30 5 -30 10 0 6 -7 10 -15 10 -8 0 -15 7 -15 15 0 10 -10 15 -30 15
-16 0 -30 5 -30 10 0 6 -11 10 -25 10 -14 0 -34 9 -45 20 -24 24 -25 30 -5 30
8 0 15 7 15 15 0 8 7 15 15 15 8 0 15 5 15 10 0 6 -13 10 -29 10 -16 0 -31 6
-35 15 -3 10 -19 15 -46 15 -53 0 -68 16 -72 76 -2 36 -7 49 -18 49 -9 0 -15
10 -15 25 -1 14 -6 24 -13 22 -7 -1 -15 5 -18 13 -4 8 -12 15 -20 15 -8 0 -14
10 -14 25 0 16 6 25 15 25 8 0 15 -7 15 -15z m-252 -107 c2 -4 10 -8 18 -8 8
0 14 -4 14 -10 0 -5 6 -10 14 -10 8 0 16 -7 20 -15 3 -8 12 -15 21 -15 11 0
14 -6 9 -25 -5 -21 -3 -25 15 -25 16 0 21 -6 21 -25 0 -16 6 -25 16 -25 8 0
12 -5 9 -11 -4 -6 2 -13 14 -16 27 -7 17 -23 -15 -23 -15 0 -24 6 -24 15 0 8
-7 15 -15 15 -8 0 -15 5 -15 10 0 6 -13 10 -29 10 -16 0 -31 6 -35 15 -3 9
-18 15 -36 15 -16 0 -30 5 -30 10 0 6 -20 10 -45 10 -25 0 -45 -4 -45 -10 0
-5 14 -10 30 -10 20 0 30 -5 30 -15 0 -11 12 -15 44 -15 31 0 46 -5 50 -16 3
-8 10 -12 16 -9 5 3 10 -1 10 -9 0 -9 6 -16 14 -16 8 0 17 -7 20 -16 3 -8 10
-13 15 -9 5 3 13 0 16 -6 4 -6 -2 -13 -14 -16 -12 -3 -21 -9 -21 -14 0 -5 -7
-9 -15 -9 -8 0 -15 -7 -15 -15 0 -8 -7 -15 -15 -15 -8 0 -15 -4 -15 -10 0 -5
-7 -10 -15 -10 -8 0 -15 -7 -15 -15 0 -10 -10 -15 -30 -15 -16 0 -30 -4 -30
-10 0 -5 -7 -10 -15 -10 -8 0 -15 -7 -15 -15 0 -10 -10 -15 -30 -15 -16 0 -30
-4 -30 -10 0 -6 -33 -10 -80 -10 -47 0 -80 4 -80 10 0 6 -7 10 -15 10 -8 0
-15 7 -15 15 0 8 -7 15 -15 15 -8 0 -15 5 -15 10 0 6 -7 10 -15 10 -8 0 -15
-4 -15 -10 0 -5 -7 -10 -15 -10 -8 0 -15 5 -15 10 0 6 -7 10 -15 10 -8 0 -15
-4 -15 -9 0 -5 -13 -12 -30 -16 -50 -11 -34 -25 30 -25 33 0 60 -4 60 -9 0 -5
14 -12 30 -16 17 -4 30 -11 30 -16 0 -5 27 -9 60 -9 33 0 60 -4 60 -10 0 -5
-7 -10 -15 -10 -8 0 -15 -7 -15 -15 0 -8 -7 -15 -15 -15 -8 0 -15 -4 -15 -10
0 -5 -7 -10 -15 -10 -8 0 -15 -7 -15 -15 0 -8 -7 -15 -15 -15 -8 0 -15 -4 -15
-10 0 -5 -13 -10 -30 -10 -20 0 -30 -5 -30 -15 0 -8 -9 -15 -21 -15 -11 0 -17
-4 -14 -10 4 -6 -18 -10 -59 -10 -52 0 -66 -3 -66 -15 0 -12 -17 -15 -90 -15
l-90 0 0 60 c0 45 -4 62 -15 66 -8 4 -15 14 -15 23 0 17 -33 51 -49 51 -5 0
-11 7 -15 15 -3 8 -12 15 -21 15 -8 0 -15 5 -15 10 0 6 9 10 20 10 11 0 20 7
20 15 0 8 7 15 15 15 8 0 15 5 15 10 0 6 7 10 15 10 8 0 15 4 15 9 0 5 14 12
30 16 17 4 30 11 30 16 0 5 13 9 29 9 16 0 31 6 33 13 3 8 35 13 96 15 79 3
92 2 92 -12 0 -9 7 -16 15 -16 9 0 15 -9 15 -25 0 -16 6 -25 15 -25 12 0 15
13 15 60 0 47 3 60 15 60 8 0 15 7 15 15 0 8 7 15 15 15 8 0 15 7 15 15 0 8 7
15 15 15 8 0 15 5 15 10 0 6 6 10 14 10 8 0 16 7 20 15 4 11 21 15 66 15 33 0
60 4 60 10 0 6 -7 10 -15 10 -9 0 -15 9 -15 25 0 16 6 25 15 25 8 0 15 7 15
15 0 8 7 15 15 15 8 0 15 5 15 10 0 6 7 10 15 10 8 0 15 7 15 15 0 12 8 14 43
9 23 -4 44 -11 45 -16z m2302 -113 c0 -16 6 -25 15 -25 8 0 15 -4 15 -10 0 -5
7 -10 15 -10 8 0 15 -7 15 -15 0 -8 7 -15 15 -15 8 0 15 -4 15 -10 0 -5 7 -10
15 -10 8 0 15 -7 15 -15 0 -8 7 -15 15 -15 8 0 15 -4 15 -10 0 -5 5 -10 10
-10 16 0 50 -38 50 -56 0 -9 9 -18 20 -21 11 -3 17 -9 14 -14 -3 -5 4 -9 15
-9 16 0 21 -6 21 -25 0 -16 6 -25 15 -25 10 0 15 -11 15 -35 0 -24 5 -35 15
-35 8 0 15 -7 15 -15 0 -8 7 -15 15 -15 9 0 15 -9 15 -25 0 -16 6 -25 15 -25
11 0 15 -11 15 -40 0 -29 -4 -40 -15 -40 -8 0 -15 -4 -15 -10 0 -5 -7 -10 -15
-10 -8 0 -15 -7 -15 -15 0 -8 -7 -15 -15 -15 -8 0 -15 -4 -15 -10 0 -5 -7 -10
-15 -10 -8 0 -15 -7 -15 -15 0 -8 -7 -15 -15 -15 -8 0 -15 -4 -15 -10 0 -5 -6
-10 -14 -10 -8 0 -16 -7 -20 -15 -4 -11 -21 -15 -66 -15 -47 0 -60 3 -60 15 0
11 -12 15 -45 15 -25 0 -45 5 -45 10 0 6 -13 10 -30 10 -20 0 -30 5 -30 15 0
8 -7 15 -15 15 -8 0 -15 5 -15 10 0 6 -14 10 -30 10 -18 0 -33 6 -36 15 -4 8
-12 15 -20 15 -8 0 -14 5 -14 10 0 6 -13 10 -30 10 -20 0 -30 5 -30 15 0 8 -7
15 -15 15 -8 0 -15 5 -15 10 0 6 -7 10 -15 10 -8 0 -15 7 -15 15 0 8 -6 15
-14 15 -8 0 -17 7 -20 16 -3 8 -10 12 -16 9 -5 -3 -10 1 -10 9 0 9 -6 16 -14
16 -8 0 -17 7 -20 16 -3 8 -10 12 -16 9 -6 -3 -13 1 -16 9 -4 10 -18 16 -35
16 -20 0 -29 5 -29 16 0 8 -5 12 -10 9 -6 -3 -13 1 -16 9 -4 11 -19 16 -49 16
-30 0 -45 -5 -49 -16 -3 -8 -10 -12 -16 -9 -5 3 -10 -1 -10 -9 0 -9 -7 -16
-15 -16 -9 0 -15 -9 -15 -25 0 -16 -6 -25 -15 -25 -9 0 -15 -9 -15 -25 0 -19
-5 -25 -21 -25 -18 0 -21 -5 -17 -36 3 -29 1 -38 -14 -42 -11 -2 -18 -14 -18
-28 0 -27 -17 -32 -26 -9 -4 10 -20 15 -50 15 -32 0 -44 -4 -44 -15 0 -8 -7
-15 -15 -15 -8 0 -15 -4 -15 -10 0 -5 -5 -10 -10 -10 -6 0 -21 -11 -34 -25
-13 -14 -28 -25 -35 -25 -6 0 -11 -11 -11 -25 0 -18 -5 -25 -20 -25 -18 0 -20
-7 -20 -65 0 -53 -3 -65 -16 -65 -14 0 -16 16 -12 124 3 109 5 126 21 130 12
3 17 14 17 40 0 25 4 36 15 36 8 0 15 5 15 10 0 6 7 10 15 10 8 0 15 7 15 15
0 8 7 15 15 15 9 0 15 9 15 25 0 16 6 25 15 25 9 0 15 9 15 25 0 16 6 25 15
25 8 0 15 5 15 10 0 6 7 10 15 10 9 0 15 9 15 25 0 16 6 25 15 25 8 0 15 7 15
15 0 8 9 15 21 15 11 0 17 5 14 10 -3 6 1 10 10 10 8 0 18 7 21 15 4 8 12 15
20 15 8 0 14 5 14 10 0 6 7 10 15 10 8 0 15 7 15 15 0 8 7 15 15 15 8 0 15 5
15 10 0 6 7 10 15 10 8 0 15 7 15 15 0 8 7 15 15 15 8 0 15 5 15 10 0 6 7 10
15 10 8 0 15 7 15 15 0 8 7 15 15 15 8 0 15 5 15 10 0 6 38 10 95 10 78 0 95
3 95 15 0 12 15 15 75 15 43 0 75 4 75 10 0 6 43 10 110 10 l110 0 0 -25z
m-2140 -210 c0 -33 -2 -35 -36 -35 -24 0 -34 -4 -31 -12 2 -7 10 -12 16 -10 6
1 11 -5 11 -13 0 -8 -7 -15 -15 -15 -8 0 -15 -4 -15 -10 0 -5 -13 -10 -30 -10
-20 0 -30 -5 -30 -15 0 -10 -10 -15 -30 -15 -16 0 -30 -4 -30 -10 0 -5 -13
-10 -30 -10 -20 0 -30 -5 -30 -15 0 -12 -13 -15 -60 -15 -47 0 -60 3 -60 15 0
8 7 15 15 15 8 0 15 5 15 10 0 6 7 10 15 10 8 0 15 5 15 10 0 6 14 10 30 10
20 0 30 5 30 15 0 11 12 15 45 15 25 0 45 5 45 10 0 6 6 10 14 10 7 0 23 14
36 30 13 17 29 30 36 30 8 0 14 5 14 10 0 6 7 10 15 10 8 0 15 5 15 10 0 6 7
10 15 10 10 0 15 -11 15 -35z m150 5 c0 -5 13 -10 29 -10 36 0 51 -19 22 -27
-12 -3 -21 -9 -21 -14 0 -5 -13 -9 -30 -9 -28 0 -30 3 -30 35 0 24 5 35 15 35
8 0 15 -4 15 -10z m-120 -115 c0 -16 -6 -25 -15 -25 -8 0 -15 -4 -15 -10 0 -5
-7 -10 -15 -10 -9 0 -18 -7 -21 -15 -7 -17 -109 -22 -119 -5 -4 6 8 10 29 10
25 0 36 4 36 15 0 10 10 15 30 15 17 0 30 5 30 10 0 6 7 10 15 10 8 0 15 7 15
15 0 8 7 15 15 15 9 0 15 -9 15 -25z m-1304 -60 c4 -8 12 -15 20 -15 8 0 14
-4 14 -10 0 -5 -7 -10 -15 -10 -8 0 -15 4 -15 9 0 5 -9 11 -21 14 -12 3 -18
10 -14 16 9 16 25 13 31 -4z m-276 -30 c0 -8 7 -15 15 -15 8 0 15 -4 15 -10 0
-6 -53 -10 -140 -10 l-140 0 0 25 0 25 125 0 c104 0 125 -2 125 -15z m3068
-23 c2 -7 -3 -12 -12 -12 -9 0 -16 7 -16 16 0 17 22 14 28 -4z m-1308 -27 c0
-11 12 -15 50 -15 43 0 50 -3 50 -20 0 -16 -7 -20 -30 -20 -18 0 -33 -6 -36
-15 -4 -10 -20 -15 -44 -15 -24 0 -40 5 -44 15 -3 9 -18 15 -36 15 -28 0 -30
3 -30 35 l0 35 60 0 c47 0 60 -3 60 -15z m840 -10 c0 -16 -6 -25 -15 -25 -10
0 -15 -11 -15 -35 0 -24 -5 -35 -15 -35 -10 0 -15 -10 -15 -30 0 -20 -5 -30
-15 -30 -12 0 -15 -13 -15 -60 0 -47 -3 -60 -15 -60 -8 0 -15 -7 -15 -15 0 -8
-7 -15 -15 -15 -9 0 -15 9 -15 25 0 21 -5 25 -30 25 -16 0 -30 -4 -30 -10 0
-5 -6 -10 -14 -10 -8 0 -16 -7 -20 -15 -9 -24 -26 -17 -26 10 0 16 6 25 15 25
9 0 15 9 15 25 0 16 6 25 15 25 8 0 15 7 15 15 0 8 7 15 15 15 8 0 15 5 15 10
0 6 7 10 15 10 9 0 15 9 15 25 0 16 6 25 15 25 12 0 15 14 15 65 l0 65 60 0
c57 0 60 -1 60 -25z m500 0 c0 -16 6 -25 15 -25 9 0 15 -9 15 -25 0 -16 6 -25
15 -25 9 0 15 -9 15 -25 0 -16 6 -25 15 -25 8 0 15 -7 15 -15 0 -8 -7 -15 -15
-15 -8 0 -15 -4 -15 -10 0 -5 -7 -10 -15 -10 -8 0 -15 -7 -15 -15 0 -8 -7 -15
-15 -15 -8 0 -15 -4 -15 -10 0 -5 -7 -10 -15 -10 -8 0 -15 -7 -15 -15 0 -8 -7
-15 -15 -15 -8 0 -15 -4 -15 -10 0 -5 -5 -10 -10 -10 -6 0 -21 -11 -34 -25
-26 -28 -62 -35 -52 -9 3 9 6 20 6 25 0 5 6 9 13 9 8 0 14 8 14 18 -1 97 4
132 18 132 10 0 15 11 15 35 0 24 5 35 15 35 10 0 15 10 15 31 0 18 4 28 10
24 6 -3 13 1 16 9 10 26 34 19 34 -9z m-930 -15 c0 -5 7 -10 15 -10 8 0 15 5
15 10 0 6 7 10 15 10 8 0 15 -4 15 -10 0 -5 -7 -10 -15 -10 -8 0 -15 -7 -15
-15 0 -8 -7 -15 -15 -15 -10 0 -15 -11 -15 -35 0 -24 -5 -35 -15 -35 -11 0
-15 -12 -15 -50 0 -49 -1 -50 -30 -50 -20 0 -30 5 -30 15 0 12 -14 15 -65 15
l-65 0 0 70 0 70 50 0 c38 0 50 4 50 15 0 11 12 15 45 15 25 0 45 5 45 10 0 6
7 10 15 10 8 0 15 -4 15 -10z m-280 -100 c0 -29 4 -40 15 -40 8 0 15 -9 15
-20 0 -17 -7 -20 -45 -20 -25 0 -45 5 -45 10 0 6 -7 10 -15 10 -9 0 -15 9 -15
25 0 16 -6 25 -15 25 -8 0 -15 5 -15 10 0 6 14 10 30 10 20 0 30 5 30 15 0 10
10 15 30 15 28 0 30 -2 30 -40z m-250 -75 c0 -8 7 -15 15 -15 8 0 15 -4 15
-10 0 -6 27 -10 60 -10 36 0 60 -4 60 -11 0 -20 -29 -39 -59 -39 -21 0 -31 -5
-31 -15 0 -10 -10 -15 -30 -15 -16 0 -30 -4 -30 -10 0 -5 -20 -10 -45 -10 -33
0 -45 -4 -45 -15 0 -10 -10 -15 -30 -15 -16 0 -30 -4 -30 -10 0 -5 -7 -10 -15
-10 -11 0 -15 -11 -15 -36 0 -27 -5 -37 -20 -41 -11 -3 -20 -9 -20 -14 0 -5
-13 -9 -30 -9 -16 0 -30 5 -30 10 0 6 -7 10 -15 10 -8 0 -15 7 -15 15 0 8 -7
15 -15 15 -8 0 -15 -7 -15 -15 0 -8 -7 -15 -15 -15 -8 0 -15 -4 -15 -10 0 -5
-7 -10 -15 -10 -8 0 -15 -7 -15 -15 0 -8 -7 -15 -15 -15 -8 0 -15 -4 -15 -10
0 -5 -13 -10 -29 -10 -16 0 -31 -6 -35 -15 -3 -8 -12 -15 -21 -15 -8 0 -15 -4
-15 -10 0 -5 -7 -10 -15 -10 -8 0 -15 -7 -15 -15 0 -8 -7 -15 -15 -15 -8 0
-15 -4 -15 -10 0 -5 -7 -10 -15 -10 -8 0 -15 -7 -15 -15 0 -8 -7 -15 -15 -15
-8 0 -15 -4 -15 -10 0 -5 -13 -10 -30 -10 -20 0 -30 -5 -30 -15 0 -8 -7 -15
-15 -15 -8 0 -15 -4 -15 -10 0 -5 -14 -10 -30 -10 -18 0 -33 -6 -36 -15 -4 -9
-19 -15 -35 -15 -16 0 -29 -4 -29 -10 0 -5 -13 -10 -30 -10 -20 0 -30 -5 -30
-15 0 -8 -7 -15 -15 -15 -8 0 -15 -4 -15 -10 0 -5 -20 -10 -45 -10 -41 0 -45
2 -45 25 0 16 6 25 15 25 11 0 15 12 15 50 0 35 4 49 13 47 8 -1 13 17 15 61
2 46 7 62 17 62 8 0 15 7 15 15 0 8 6 14 13 12 7 -1 13 10 15 26 2 15 9 27 18
27 8 0 14 5 14 10 0 6 6 10 14 10 8 0 16 7 20 15 3 8 12 15 21 15 8 0 15 5 15
10 0 6 7 10 15 10 8 0 15 7 15 15 0 8 7 15 15 15 8 0 15 5 15 10 0 6 7 10 15
10 8 0 15 7 15 15 0 10 10 15 30 15 17 0 30 5 30 10 0 6 20 10 44 10 30 0 46
5 50 15 4 11 21 15 66 15 33 0 60 4 60 10 0 6 32 10 75 10 60 0 75 3 75 15 0
11 11 15 36 15 21 0 33 4 29 10 -4 6 18 10 59 10 52 0 66 3 66 15 0 12 13 15
60 15 47 0 60 -3 60 -15z m250 -75 c0 -5 7 -10 15 -10 9 0 15 -9 15 -25 0 -16
-6 -25 -15 -25 -9 0 -15 9 -15 25 0 16 -6 25 -15 25 -8 0 -15 5 -15 10 0 6 7
10 15 10 8 0 15 -4 15 -10z m280 -50 c0 -5 7 -10 15 -10 8 0 15 -7 15 -15 0
-8 -7 -15 -15 -15 -8 0 -15 -4 -15 -10 0 -5 -7 -10 -15 -10 -8 0 -15 5 -15 10
0 6 -7 10 -15 10 -8 0 -15 7 -15 15 0 8 -6 15 -14 15 -8 0 -18 5 -21 10 -4 6
13 10 44 10 28 0 51 -4 51 -10z m1240 -295 c0 -24 -5 -35 -15 -35 -10 0 -15
11 -15 35 0 24 5 35 15 35 10 0 15 -11 15 -35z m-2890 -120 c0 -33 -4 -45 -15
-45 -12 0 -15 -14 -15 -65 0 -51 -3 -65 -15 -65 -12 0 -15 -14 -15 -65 0 -51
3 -65 15 -65 8 0 15 -4 15 -10 0 -5 16 -10 35 -10 19 0 35 5 35 10 0 6 20 10
45 10 33 0 45 4 45 15 0 8 7 15 15 15 8 0 15 5 15 10 0 6 14 10 30 10 20 0 30
5 30 15 0 8 7 15 15 15 8 0 15 5 15 10 0 6 7 10 15 10 9 0 18 7 21 15 4 8 11
15 16 15 6 0 21 11 34 25 13 14 34 25 49 25 16 0 25 6 25 15 0 8 7 15 15 15 8
0 15 5 15 10 0 6 7 10 15 10 8 0 15 7 15 15 0 8 7 15 15 15 8 0 15 -7 15 -15
0 -8 -7 -15 -15 -15 -9 0 -15 -9 -15 -25 0 -16 -6 -25 -15 -25 -8 0 -15 -4
-15 -10 0 -5 -7 -10 -15 -10 -8 0 -15 -7 -15 -15 0 -8 -7 -15 -15 -15 -8 0
-15 -4 -15 -10 0 -5 -7 -10 -15 -10 -8 0 -15 -7 -15 -15 0 -8 -9 -15 -20 -15
-15 0 -20 -7 -20 -25 0 -16 -6 -25 -15 -25 -9 0 -15 -9 -15 -25 0 -16 -6 -25
-15 -25 -8 0 -15 -6 -15 -14 0 -10 -9 -13 -30 -10 -23 4 -30 1 -30 -10 0 -14
-17 -16 -110 -16 -82 0 -110 3 -110 13 0 8 -19 13 -60 13 -44 1 -60 -2 -60
-12 0 -10 -14 -14 -45 -14 -33 0 -45 4 -45 15 0 8 -7 15 -15 15 -8 0 -15 5
-15 10 0 6 7 10 15 10 8 0 15 5 15 10 0 6 7 10 15 10 8 0 15 7 15 15 0 8 7 15
15 15 8 0 15 5 15 10 0 6 7 10 15 10 9 0 15 9 15 25 0 16 6 25 15 25 9 0 15 9
15 25 0 16 6 25 15 25 9 0 15 9 15 25 0 16 6 25 15 25 11 0 15 12 15 49 0 40
3 50 20 54 12 3 20 14 20 26 0 12 5 21 10 21 6 0 10 -20 10 -45z m720 -110 c0
-24 -5 -35 -15 -35 -11 0 -15 -12 -15 -50 0 -42 -3 -50 -18 -50 -13 0 -18 7
-18 23 1 17 -5 23 -27 25 -18 2 -29 -2 -33 -12 -4 -10 -18 -16 -35 -16 -16 0
-29 -4 -29 -10 0 -5 -7 -10 -15 -10 -8 0 -15 -7 -15 -15 0 -8 -7 -15 -15 -15
-8 0 -15 -4 -15 -10 0 -5 -7 -10 -15 -10 -8 0 -15 5 -15 10 0 6 7 10 15 10 8
0 15 7 15 15 0 8 7 15 15 15 8 0 15 5 15 10 0 6 7 10 15 10 8 0 15 7 15 15 0
8 7 15 15 15 8 0 15 5 15 10 0 6 5 10 10 10 6 0 21 10 33 23 12 13 30 26 40
30 9 3 17 11 17 17 0 5 7 10 15 10 8 0 15 5 15 10 0 6 7 10 15 10 10 0 15 -11
15 -35z m2450 -340 c0 -16 -6 -25 -15 -25 -9 0 -15 9 -15 25 0 16 6 25 15 25
9 0 15 -9 15 -25z m-2700 -340 c0 -24 -5 -35 -15 -35 -10 0 -15 11 -15 35 0
24 5 35 15 35 10 0 15 -11 15 -35z m-440 -515 c0 -11 -4 -20 -10 -20 -5 0 -10
9 -10 20 0 11 5 20 10 20 6 0 10 -9 10 -20z"/>
<path d="M3540 4205 c0 -8 7 -15 15 -15 8 0 15 -4 15 -10 0 -5 7 -10 15 -10 8
0 15 5 15 10 0 6 7 10 15 10 8 0 15 -4 15 -10 0 -5 7 -10 15 -10 8 0 15 -7 15
-15 0 -8 7 -15 15 -15 8 0 15 -4 15 -10 0 -5 9 -10 20 -10 11 0 20 5 20 10 0
6 -9 10 -20 10 -11 0 -20 7 -20 15 0 8 -7 15 -15 15 -8 0 -15 5 -15 10 0 6 -6
10 -14 10 -8 0 -16 8 -18 17 -3 16 -4 16 -20 0 -18 -18 -38 -22 -38 -8 0 5 -7
11 -15 15 -9 3 -15 0 -15 -9z"/>
<path d="M3725 4110 c-3 -6 1 -13 10 -16 19 -8 30 0 20 15 -8 14 -22 14 -30 1z"/>
<path d="M3690 3815 c0 -16 -6 -25 -15 -25 -8 0 -15 -4 -15 -10 0 -5 7 -10 15
-10 8 0 15 5 15 10 0 6 7 10 15 10 9 0 15 9 15 25 0 16 -6 25 -15 25 -9 0 -15
-9 -15 -25z"/>
<path d="M3630 3750 c0 -5 -7 -10 -15 -10 -8 0 -15 -7 -15 -15 0 -8 7 -15 15
-15 8 0 15 7 15 15 0 8 7 15 15 15 8 0 15 5 15 10 0 6 -7 10 -15 10 -8 0 -15
-4 -15 -10z"/>
<path d="M2580 3635 c0 -22 4 -25 28 -22 19 2 28 10 30 25 3 19 -1 22 -27 22
-26 0 -31 -4 -31 -25z"/>
<path d="M2360 3565 c0 -21 5 -25 30 -25 25 0 30 4 30 25 0 21 -5 25 -30 25
-25 0 -30 -4 -30 -25z"/>
<path d="M2480 3515 c0 -21 5 -25 30 -25 17 0 30 5 30 10 0 6 -7 10 -15 10 -8
0 -15 7 -15 15 0 8 -7 15 -15 15 -9 0 -15 -9 -15 -25z"/>
<path d="M2240 3500 c0 -5 5 -10 10 -10 6 0 10 5 10 10 0 6 -4 10 -10 10 -5 0
-10 -4 -10 -10z"/>
<path d="M2670 3500 c0 -5 -7 -10 -15 -10 -8 0 -15 -7 -15 -15 0 -8 -7 -15
-15 -15 -8 0 -15 -4 -15 -10 0 -5 -13 -10 -29 -10 -16 0 -31 -6 -35 -15 -3 -9
-18 -15 -36 -15 -16 0 -30 -4 -30 -10 0 -5 6 -10 14 -10 8 0 16 -7 20 -15 3
-8 13 -15 21 -15 9 0 13 -4 10 -10 -4 -6 18 -10 60 -10 44 0 64 4 60 11 -4 6
2 13 14 16 12 3 21 13 21 24 0 11 7 19 15 19 11 0 15 11 15 40 0 29 -4 40 -15
40 -8 0 -15 5 -15 10 0 6 -7 10 -15 10 -8 0 -15 -4 -15 -10z"/>
<path d="M2270 3474 c0 -17 22 -14 28 4 2 7 -3 12 -12 12 -9 0 -16 -7 -16 -16z"/>
<path d="M3970 2600 c0 -5 7 -10 15 -10 8 0 15 5 15 10 0 6 -7 10 -15 10 -8 0
-15 -4 -15 -10z"/>
<path d="M4440 2585 c0 -15 -6 -25 -14 -25 -8 0 -17 -7 -20 -16 -3 -8 -10 -12
-16 -9 -5 3 -10 -1 -10 -9 0 -13 -16 -16 -95 -16 -57 0 -95 4 -95 10 0 6 -13
10 -30 10 -20 0 -30 5 -30 15 0 11 -12 15 -50 15 -37 0 -50 4 -50 15 0 9 -6
12 -15 9 -8 -4 -15 -10 -15 -15 0 -5 7 -9 15 -9 8 0 15 -7 15 -15 0 -10 -10
-15 -30 -15 -16 0 -30 -4 -30 -10 0 -5 6 -10 14 -10 8 0 16 -6 19 -14 4 -10
15 -13 32 -10 17 3 27 -1 31 -11 4 -9 18 -15 35 -15 20 0 29 -5 29 -16 0 -8 5
-12 10 -9 6 3 13 -1 16 -9 4 -10 18 -16 35 -16 18 0 29 -5 29 -13 0 -21 179
-23 186 -2 4 8 12 15 20 15 8 0 14 7 14 16 0 8 5 12 10 9 6 -3 13 1 16 9 3 9
12 16 20 16 10 0 14 15 14 60 0 47 -3 60 -15 60 -8 0 -15 7 -15 15 0 8 -7 15
-15 15 -9 0 -15 -9 -15 -25z"/>
<path d="M3380 4405 c0 -8 9 -15 20 -15 11 0 20 7 20 15 0 8 -9 15 -20 15 -11
0 -20 -7 -20 -15z"/>
<path d="M400 2775 c0 -8 -7 -15 -15 -15 -11 0 -15 -11 -15 -40 0 -29 4 -40
15 -40 8 0 15 -4 15 -10 0 -5 7 -10 15 -10 8 0 15 7 15 15 0 8 -7 15 -15 15
-10 0 -15 11 -15 35 0 33 2 35 35 35 24 0 35 5 35 15 0 10 -11 15 -35 15 -24
0 -35 -5 -35 -15z"/>
<path d="M810 2544 c0 -17 22 -14 28 4 2 7 -3 12 -12 12 -9 0 -16 -7 -16 -16z"/>
</g>
</svg>
